<svg viewBox="0 0 96 96" xmlns="http://www.w3.org/2000/svg" xmlns:xlink="http://www.w3.org/1999/xlink" id="Icons_Subtitles_RTL" overflow="hidden"><style>
.MsftOfcThm_Text1_Fill_v2 {
 fill:#FFFFFF; 
}
</style>
<path d="M17.4 17C15.5112 17.011 13.989 18.5511 14 20.4399 14 20.4399 14 20.44 14 20.44L14 61.92C14.0861 63.7073 15.6048 65.0865 17.3921 65.0004 17.3947 65.0003 17.3974 65.0001 17.4 65L28 65 28 79 41.2 65 78.74 65C80.5294 65.0111 81.9889 63.5695 82 61.7801 82 61.7801 82 61.78 82 61.78L82 20.44 82 20.44C82.0111 18.5512 80.4889 17.0111 78.6001 17 78.6001 17 78.6 17 78.6 17ZM75 47 63 47 63 43 75 43ZM56 51 75 51 75 55 56 55ZM41 51 52 51 52 55 41 55ZM38 43 58 43 58 47 38 47ZM26 51 37 51 37 55 26 55ZM21 43 34 43 34 47 21 47Z" class="MsftOfcThm_Text1_Fill_v2" stroke-width="0.984815" fill="#FFFFFF"/></svg>