<svg width="16" height="16" viewBox="0 0 16 16" xmlns="http://www.w3.org/2000/svg" xmlns:xlink="http://www.w3.org/1999/xlink" fill="currentColor" overflow="hidden"><style>
.MsftOfcThm_Text1_Fill_v2 {
 fill:#FFFFFF; 
}
</style>
<path d="M8 15C4.13401 15 1 11.866 1 8 1 4.13401 4.13401 1 8 1 11.866 1 15 4.13401 15 8 15 11.866 11.866 15 8 15ZM8 16C12.4183 16 16 12.4183 16 8 16 3.58172 12.4183-1.77636e-15 8-1.77636e-15 3.58172-1.77636e-15-1.77636e-15 3.58172 0 8 0 12.4183 3.58172 16 8 16Z" class="MsftOfcThm_Text1_Fill_v2" fill="#FFFFFF"/><path d="M8.93 6.588 6.64 6.875 6.558 7.255 7.008 7.338C7.302 7.408 7.36 7.514 7.296 7.807L6.558 11.275C6.364 12.172 6.663 12.594 7.366 12.594 7.911 12.594 8.544 12.342 8.831 11.996L8.919 11.58C8.719 11.756 8.427 11.826 8.233 11.826 7.958 11.826 7.858 11.633 7.929 11.293L8.93 6.588ZM9 4.5C9 5.05228 8.55229 5.5 8 5.5 7.44772 5.5 7 5.05228 7 4.5 7 3.94772 7.44772 3.5 8 3.5 8.55229 3.5 9 3.94772 9 4.5Z" class="MsftOfcThm_Text1_Fill_v2" fill="#FFFFFF"/></svg>