<svg width="23" height="23" xmlns="http://www.w3.org/2000/svg" xmlns:xlink="http://www.w3.org/1999/xlink" xml:space="preserve" overflow="hidden"><style>
.MsftOfcThm_Text1_Fill_v2 {
 fill:#FFFFFF; 
}
</style>
<g transform="translate(-1042 -101)"><path d="M1062.9 105.899C1062.24 104.963 1061.44 104.134 1060.53 103.434 1059.62 102.726 1058.6 102.162 1057.52 101.759 1057.04 101.579 1056.51 101.823 1056.33 102.301 1056.15 102.777 1056.4 103.311 1056.87 103.487 1058.7 104.169 1060.26 105.371 1061.38 106.966 1062.54 108.596 1063.15 110.516 1063.15 112.519 1063.15 115.093 1062.14 117.515 1060.32 119.335 1058.5 121.153 1056.07 122.157 1053.5 122.157 1050.92 122.157 1048.5 121.153 1046.68 119.335 1044.85 117.515 1043.85 115.093 1043.85 112.519 1043.85 110.516 1044.46 108.598 1045.61 106.966 1046.74 105.371 1048.3 104.171 1050.12 103.487 1050.6 103.309 1050.84 102.777 1050.66 102.299 1050.48 101.823 1049.95 101.579 1049.47 101.759 1048.39 102.162 1047.38 102.726 1046.46 103.434 1045.56 104.134 1044.76 104.965 1044.1 105.899 1042.73 107.842 1042 110.133 1042 112.517 1042 114.067 1042.3 115.571 1042.9 116.987 1043.48 118.354 1044.31 119.583 1045.37 120.636 1046.42 121.691 1047.65 122.52 1049.02 123.097 1050.44 123.698 1051.95 124 1053.5 124 1055.05 124 1056.56 123.698 1057.97 123.097 1059.34 122.52 1060.57 121.691 1061.63 120.636 1062.69 119.583 1063.51 118.354 1064.09 116.987 1064.69 115.571 1065 114.067 1065 112.517 1065 110.133 1064.27 107.844 1062.9 105.899ZM1053.5 113.285C1054.01 113.285 1054.42 112.87 1054.42 112.361L1054.42 101.924C1054.42 101.415 1054.01 101 1053.5 101 1052.99 101 1052.57 101.415 1052.57 101.924L1052.57 112.361C1052.57 112.87 1052.99 113.285 1053.5 113.285Z" class="MsftOfcThm_Text1_Fill_v2" fill="#FFFFFF" fill-rule="evenodd"/></g></svg>