<svg width="16" height="16" viewBox="0 0 16 16" xmlns="http://www.w3.org/2000/svg" xmlns:xlink="http://www.w3.org/1999/xlink" fill="currentColor" overflow="hidden"><style>
.MsftOfcThm_Background1_lumMod_65_lumOff_35_Fill_v2 {
 fill:#595959; 
}
</style>
<path d="M0 10C-4.44089e-16 8.89543 0.895431 8 2 8L14 8C15.1046 8 16 8.89543 16 10L16 11C16 12.1046 15.1046 13 14 13L2 13C0.895431 13 -2.22045e-16 12.1046 -2.22045e-16 11L0 10ZM2.5 11C2.77614 11 3 10.7761 3 10.5 3 10.2239 2.77614 10 2.5 10 2.22386 10 2 10.2239 2 10.5 2 10.7761 2.22386 11 2.5 11ZM4.5 11C4.77614 11 5 10.7761 5 10.5 5 10.2239 4.77614 10 4.5 10 4.22386 10 4 10.2239 4 10.5 4 10.7761 4.22386 11 4.5 11ZM0.91 7.204C1.25745 7.0687 1.62713 6.99951 2 7L14 7C14.384 7 14.752 7.072 15.09 7.204L13.223 3.782C12.9602 3.29995 12.455 3 11.906 3L4.094 3C3.54497 3 3.0398 3.29995 2.777 3.782L0.91 7.204Z" class="MsftOfcThm_Background1_lumMod_65_lumOff_35_Fill_v2" fill="#595959"/></svg>