<svg width="200" height="200" viewBox="0 0 1024 1024" xmlns="http://www.w3.org/2000/svg" xmlns:xlink="http://www.w3.org/1999/xlink" overflow="hidden"><style>
.MsftOfcThm_Background1_lumMod_50_Fill_v2 {
 fill:#000000; 
}
</style>
<defs></defs><path d="M753.067 270.933C689.286 206.718 602.507 170.624 512 170.667 323.487 170.667 170.667 323.487 170.667 512 170.667 700.513 323.487 853.333 512 853.333 671.147 853.333 803.84 744.533 841.813 597.333L753.067 597.333C717.047 699.597 620.422 768.004 512 768 370.615 768 256 653.385 256 512 256 370.615 370.615 256 512 256 582.827 256 645.973 285.44 692.053 331.947L554.667 469.333 853.333 469.333 853.333 170.667 753.067 270.933Z" class="MsftOfcThm_Background1_lumMod_50_Fill_v2" fill-opacity="0"/></svg>