<svg width="200" height="200" viewBox="0 0 1024 1024" xmlns="http://www.w3.org/2000/svg" xmlns:xlink="http://www.w3.org/1999/xlink" overflow="hidden"><style>
.MsftOfcThm_Background1_lumMod_50_lumOff_50_Fill_v2 {
 fill:#7F7F7F; 
}
</style>
<defs></defs><path d="M706.56 232.107 644.693 293.973C721.164 340.018 767.946 422.737 768 512 768 653.385 653.385 768 512 768 370.615 768 256 653.385 256 512 256 419.413 305.493 338.773 378.88 293.547L317.44 232.107C225.448 295.576 170.564 400.237 170.667 512 170.667 700.513 323.487 853.333 512 853.333 700.513 853.333 853.333 700.513 853.333 512 853.333 395.947 795.307 293.547 706.56 232.107M554.667 128 469.333 128 469.333 554.667 554.667 554.667" class="MsftOfcThm_Background1_lumMod_50_lumOff_50_Fill_v2" fill="#7F7F7F" fill-opacity="0"/></svg>