<svg width="16" height="16" viewBox="0 0 16 16" xmlns="http://www.w3.org/2000/svg" xmlns:xlink="http://www.w3.org/1999/xlink" fill="currentColor" overflow="hidden"><style>
.MsftOfcThm_Background1_lumMod_75_lumOff_25_Fill_v2 {
 fill:#404040; 
}
</style>
<path d="M14 13.5 14 6.5C14 6.22386 13.7761 6 13.5 6L12 6 12 4.5C12 4.22386 11.7761 4 11.5 4L10.5 4 10.5 3.5C10.5 3.22386 10.2761 3 10 3L6 3C5.72386 3 5.5 3.22386 5.5 3.5L5.5 4 4.5 4C4.22386 4 4 4.22386 4 4.5L4 6 2.5 6C2.22386 6 2 6.22386 2 6.5L2 13.5C2 13.7761 2.22386 14 2.5 14L13.5 14C13.7761 14 14 13.7761 14 13.5ZM3.75 11 4.25 11C4.38807 11 4.5 11.1119 4.5 11.25L4.5 12.75C4.5 12.8881 4.38807 13 4.25 13L3.75 13C3.61193 13 3.5 12.8881 3.5 12.75L3.5 11.25C3.5 11.1119 3.61193 11 3.75 11ZM5.75 11 6.25 11C6.38807 11 6.5 11.1119 6.5 11.25L6.5 12.75C6.5 12.8881 6.38807 13 6.25 13L5.75 13C5.61193 13 5.5 12.8881 5.5 12.75L5.5 11.25C5.5 11.1119 5.61193 11 5.75 11ZM7.5 11.25C7.5 11.1119 7.61193 11 7.75 11L8.25 11C8.38807 11 8.5 11.1119 8.5 11.25L8.5 12.75C8.5 12.8881 8.38807 13 8.25 13L7.75 13C7.61193 13 7.5 12.8881 7.5 12.75L7.5 11.25ZM9.75 11 10.25 11C10.3881 11 10.5 11.1119 10.5 11.25L10.5 12.75C10.5 12.8881 10.3881 13 10.25 13L9.75 13C9.61193 13 9.5 12.8881 9.5 12.75L9.5 11.25C9.5 11.1119 9.61193 11 9.75 11ZM11.5 11.25C11.5 11.1119 11.6119 11 11.75 11L12.25 11C12.3881 11 12.5 11.1119 12.5 11.25L12.5 12.75C12.5 12.8881 12.3881 13 12.25 13L11.75 13C11.6119 13 11.5 12.8881 11.5 12.75L11.5 11.25Z" class="MsftOfcThm_Background1_lumMod_75_lumOff_25_Fill_v2" fill="#404040"/><path d="M2 0C0.895431 0 -4.44089e-16 0.895431 0 2L0 14C0 15.1046 0.895431 16 2 16L14 16C15.1046 16 16 15.1046 16 14L16 2C16 0.895431 15.1046 -4.44089e-16 14 -4.44089e-16L2 0ZM1 2C1 1.44772 1.44772 1 2 1L14 1C14.5523 1 15 1.44772 15 2L15 14C15 14.5523 14.5523 15 14 15L2 15C1.44772 15 1 14.5523 1 14L1 2Z" class="MsftOfcThm_Background1_lumMod_75_lumOff_25_Fill_v2" fill="#404040"/></svg>