<svg width="16" height="16" viewBox="0 0 16 16" xmlns="http://www.w3.org/2000/svg" xmlns:xlink="http://www.w3.org/1999/xlink" fill="currentColor" overflow="hidden"><style>
.MsftOfcThm_Text1_Fill_v2 {
 fill:#FFFFFF; 
}
</style>
<path d="M11.536 14.01C13.1326 12.4178 14.0288 10.2548 14.026 8 14.0288 5.74515 13.1326 3.58221 11.536 1.99L10.828 2.697C12.2368 4.1019 13.0275 6.01041 13.025 8 13.025 10.071 12.185 11.946 10.828 13.303L11.536 14.01Z" class="MsftOfcThm_Text1_Fill_v2" fill="#FFFFFF"/><path d="M10.121 12.596C11.3419 11.3783 12.0271 9.72431 12.025 8 12.0271 6.27569 11.3419 4.62166 10.121 3.404L9.414 4.111C10.447 5.14135 11.0268 6.54096 11.025 8 11.0274 9.45925 10.4479 10.8592 9.415 11.89L10.121 12.596Z" class="MsftOfcThm_Text1_Fill_v2" fill="#FFFFFF"/><path d="M10.025 8C10.0266 9.19378 9.55222 10.339 8.707 11.182L8 10.475C8.65739 9.81926 9.02628 8.92852 9.025 8 9.025 7.034 8.633 6.159 8 5.525L8.707 4.818C9.55222 5.66105 10.0266 6.80622 10.025 8ZM7 4C6.99961 3.72386 6.77543 3.50032 6.49929 3.50071 6.38615 3.50087 6.27641 3.5394 6.188 3.61L3.825 5.5 1.5 5.5C1.22386 5.5 1 5.72386 1 6L1 10C1 10.2761 1.22386 10.5 1.5 10.5L3.825 10.5 6.188 12.39C6.40378 12.5623 6.7184 12.5271 6.89071 12.3113 6.96131 12.2229 6.99984 12.1131 7 12L7 4ZM4.312 6.39 6 5.04 6 10.96 4.312 9.61C4.22349 9.53899 4.11347 9.5002 4 9.5L2 9.5 2 6.5 4 6.5C4.11347 6.4998 4.22349 6.46101 4.312 6.39Z" class="MsftOfcThm_Text1_Fill_v2" fill="#FFFFFF"/></svg>