<svg width="16" height="16" viewBox="0 0 16 16" xmlns="http://www.w3.org/2000/svg" xmlns:xlink="http://www.w3.org/1999/xlink" fill="currentColor" overflow="hidden"><style>
.MsftOfcResponsive_Fill_56ff21 {
 fill:#56FF21; 
}
</style>
<path d="M2 6 7 6 7 10 2 10 2 6Z" class="MsftOfcResponsive_Fill_56ff21" fill="#56FF21"/><path d="M2 4C0.895431 4 -4.44089e-16 4.89543 0 6L0 10C0 11.1046 0.895431 12 2 12L12 12C13.1046 12 14 11.1046 14 10L14 6C14 4.89543 13.1046 4 12 4L2 4ZM12 5C12.5523 5 13 5.44772 13 6L13 10C13 10.5523 12.5523 11 12 11L2 11C1.44772 11 1 10.5523 1 10L1 6C1 5.44772 1.44772 5 2 5L12 5ZM16 8C16 8.82843 15.3284 9.5 14.5 9.5L14.5 6.5C15.3284 6.5 16 7.17157 16 8Z" class="MsftOfcResponsive_Fill_56ff21" fill="#56FF21"/></svg>