<svg width="16" height="16" viewBox="0 0 16 16" xmlns="http://www.w3.org/2000/svg" xmlns:xlink="http://www.w3.org/1999/xlink" fill="currentColor" overflow="hidden"><style>
.MsftOfcThm_Background1_lumMod_65_lumOff_35_Fill_v2 {
 fill:#595959; 
}
</style>
<path d="M6.5 6C6.22386 6 6 6.22386 6 6.5L6 9.5C6 9.77614 6.22386 10 6.5 10L9.5 10C9.77614 10 10 9.77614 10 9.5L10 6.5C10 6.22386 9.77614 6 9.5 6L6.5 6Z" class="MsftOfcThm_Background1_lumMod_65_lumOff_35_Fill_v2" fill="#595959"/><path d="M5.5 0.5C5.5 0.223858 5.27614 -1.11022e-16 5 -1.11022e-16 4.72386 -2.22045e-16 4.5 0.223858 4.5 0.5L4.5 2C3.11929 2 2 3.11929 2 4.5L0.5 4.5C0.223858 4.5 -1.11022e-16 4.72386 0 5 0 5.27614 0.223858 5.5 0.5 5.5L2 5.5 2 6.5 0.5 6.5C0.223858 6.5 -1.11022e-16 6.72386 0 7 0 7.27614 0.223858 7.5 0.5 7.5L2 7.5 2 8.5 0.5 8.5C0.223858 8.5 -1.11022e-16 8.72386 0 9 0 9.27614 0.223858 9.5 0.5 9.5L2 9.5 2 10.5 0.5 10.5C0.223858 10.5 -1.11022e-16 10.7239 0 11 0 11.2761 0.223858 11.5 0.5 11.5L2 11.5C2 12.8807 3.11929 14 4.5 14L4.5 15.5C4.5 15.7761 4.72386 16 5 16 5.27614 16 5.5 15.7761 5.5 15.5L5.5 14 6.5 14 6.5 15.5C6.5 15.7761 6.72386 16 7 16 7.27614 16 7.5 15.7761 7.5 15.5L7.5 14 8.5 14 8.5 15.5C8.5 15.7761 8.72386 16 9 16 9.27614 16 9.5 15.7761 9.5 15.5L9.5 14 10.5 14 10.5 15.5C10.5 15.7761 10.7239 16 11 16 11.2761 16 11.5 15.7761 11.5 15.5L11.5 14C12.8807 14 14 12.8807 14 11.5L15.5 11.5C15.7761 11.5 16 11.2761 16 11 16 10.7239 15.7761 10.5 15.5 10.5L14 10.5 14 9.5 15.5 9.5C15.7761 9.5 16 9.27614 16 9 16 8.72386 15.7761 8.5 15.5 8.5L14 8.5 14 7.5 15.5 7.5C15.7761 7.5 16 7.27614 16 7 16 6.72386 15.7761 6.5 15.5 6.5L14 6.5 14 5.5 15.5 5.5C15.7761 5.5 16 5.27614 16 5 16 4.72386 15.7761 4.5 15.5 4.5L14 4.5C14 3.11929 12.8807 2 11.5 2L11.5 0.5C11.5 0.223858 11.2761 -1.11022e-16 11 -1.11022e-16 10.7239 -2.22045e-16 10.5 0.223858 10.5 0.5L10.5 2 9.5 2 9.5 0.5C9.5 0.223858 9.27614 -1.11022e-16 9 -1.11022e-16 8.72386 -2.22045e-16 8.5 0.223858 8.5 0.5L8.5 2 7.5 2 7.5 0.5C7.5 0.223858 7.27614 -1.11022e-16 7 -1.11022e-16 6.72386 -2.22045e-16 6.5 0.223858 6.5 0.5L6.5 2 5.5 2 5.5 0.5ZM6.5 5 9.5 5C10.3284 5 11 5.67157 11 6.5L11 9.5C11 10.3284 10.3284 11 9.5 11L6.5 11C5.67157 11 5 10.3284 5 9.5L5 6.5C5 5.67157 5.67157 5 6.5 5Z" class="MsftOfcThm_Background1_lumMod_65_lumOff_35_Fill_v2" fill="#595959"/></svg>