<svg width="16" height="16" viewBox="0 0 16 16" xmlns="http://www.w3.org/2000/svg" xmlns:xlink="http://www.w3.org/1999/xlink" fill="currentColor" overflow="hidden"><style>
.MsftOfcThm_Text1_Fill_v2 {
 fill:#FFFFFF; 
}
</style>
<path d="M0 11.5C-1.11022e-16 11.2239 0.223858 11 0.5 11L2.5 11C2.77614 11 3 11.2239 3 11.5L3 13.5C3 13.7761 2.77614 14 2.5 14L0.5 14C0.223858 14 -5.55112e-17 13.7761 -5.55112e-17 13.5L0 11.5ZM4 8.5C4 8.22386 4.22386 8 4.5 8L6.5 8C6.77614 8 7 8.22386 7 8.5L7 13.5C7 13.7761 6.77614 14 6.5 14L4.5 14C4.22386 14 4 13.7761 4 13.5L4 8.5ZM8 5.5C8 5.22386 8.22386 5 8.5 5L10.5 5C10.7761 5 11 5.22386 11 5.5L11 13.5C11 13.7761 10.7761 14 10.5 14L8.5 14C8.22386 14 8 13.7761 8 13.5L8 5.5ZM12 13.5C12 13.2239 12.2239 13 12.5 13L14.5 13C14.7761 13 15 13.2239 15 13.5 15 13.7761 14.7761 14 14.5 14L12.5 14C12.2239 14 12 13.7761 12 13.5Z" class="MsftOfcThm_Text1_Fill_v2" fill="#FFFFFF"/></svg>