<svg width="64" height="64" xmlns="http://www.w3.org/2000/svg" xmlns:xlink="http://www.w3.org/1999/xlink" xml:space="preserve" overflow="hidden"><g transform="translate(-651 -263)"><path d="M683 263C665.653 263 651 277.653 651 295 651 312.347 665.653 327 683 327 700.347 327 715 312.347 715 295 715 277.653 700.347 263 683 263ZM683 269.396C690.885 269.396 698.061 273.189 702.801 278.997L683 278.997C677.138 278.997 672.061 282.201 669.271 286.917L664.963 277.029C669.631 272.349 676.046 269.396 683 269.396ZM692.601 295C692.601 298.102 691.023 300.892 688.652 302.662L688.58 302.602 688.304 302.944C686.744 304.019 684.896 304.595 683 304.601 677.798 304.601 673.399 300.202 673.399 295 673.399 289.798 677.798 285.399 683 285.399 688.202 285.399 692.601 289.798 692.601 295ZM675.2 319.326C664.999 315.935 657.396 306.173 657.396 295 657.396 290.662 658.542 286.533 660.547 282.909L667.267 298.324 667.345 298.288C668.845 305.285 674.81 310.433 681.95 310.895L675.2 319.326ZM708.604 295C708.604 308.879 696.879 320.604 683 320.604 682.796 320.604 682.604 320.574 682.4 320.568L692.847 307.517C696.561 304.583 699.003 300.094 699.003 295 699.003 291.382 697.749 288.082 695.721 285.399L706.647 285.399C707.896 288.382 708.604 291.622 708.604 295Z" fill="#FFFFFF" fill-rule="evenodd" fill-opacity="0"/></g></svg>