<svg width="16" height="16" viewBox="0 0 16 16" xmlns="http://www.w3.org/2000/svg" xmlns:xlink="http://www.w3.org/1999/xlink" fill="currentColor" overflow="hidden"><style>
.MsftOfcThm_Background1_Fill_v2 {
 fill:#000000; 
}
</style>
<path d="M15 8C15 7.72386 14.7761 7.5 14.5 7.5L2.707 7.5 5.854 4.354C6.04951 4.15849 6.04951 3.84151 5.854 3.646 5.65849 3.45049 5.34151 3.45049 5.146 3.646L1.146 7.646C0.950491 7.84101 0.950091 8.1576 1.14511 8.35311 1.1454 8.3534 1.1457 8.3537 1.146 8.354L5.146 12.354C5.34151 12.5495 5.65849 12.5495 5.854 12.354 6.04951 12.1585 6.04951 11.8415 5.854 11.646L2.707 8.5 14.5 8.5C14.7761 8.5 15 8.27614 15 8Z" class="MsftOfcThm_Background1_Fill_v2" fill="#000000" fill-rule="evenodd"/></svg>