<svg width="16" height="16" viewBox="0 0 16 16" xmlns="http://www.w3.org/2000/svg" xmlns:xlink="http://www.w3.org/1999/xlink" fill="currentColor" overflow="hidden"><style>
.MsftOfcThm_Text1_Fill_v2 {
 fill:#FFFFFF; 
}
</style>
<path d="M2.114 8.063 2.114 7.9C3.119 7.798 3.611 7.285 3.611 6.3L3.611 4.503C3.611 3.409 4.001 2.965 4.965 2.965L5.238 2.965 5.238 2 4.862 2C3.25 2 2.49 2.759 2.49 4.352L2.49 5.876C2.49 6.97 2.114 7.332 1 7.332L1 8.631C2.114 8.631 2.49 8.993 2.49 10.087L2.49 11.611C2.49 13.204 3.249 13.963 4.862 13.963L5.238 13.963 5.238 12.999 4.965 12.999C4.001 12.999 3.611 12.555 3.611 11.461L3.611 9.663C3.611 8.679 3.119 8.166 2.114 8.063ZM13.886 7.9 13.886 8.063C12.881 8.166 12.389 8.679 12.389 9.663L12.389 11.461C12.389 12.555 11.999 12.999 11.035 12.999L10.762 12.999 10.762 13.963 11.138 13.963C12.751 13.963 13.51 13.204 13.51 11.611L13.51 10.087C13.51 8.993 13.886 8.631 15 8.631L15 7.332C13.886 7.332 13.51 6.97 13.51 5.876L13.51 4.352C13.51 2.759 12.75 2 11.138 2L10.762 2 10.762 2.964 11.035 2.964C11.999 2.964 12.389 3.408 12.389 4.502L12.389 6.3C12.389 7.284 12.881 7.797 13.886 7.9Z" class="MsftOfcThm_Text1_Fill_v2" fill="#FFFFFF"/></svg>