<svg width="16" height="16" viewBox="0 0 16 16" xmlns="http://www.w3.org/2000/svg" xmlns:xlink="http://www.w3.org/1999/xlink" fill="currentColor" overflow="hidden"><style>
.MsftOfcThm_Text1_Fill_v2 {
 fill:#FFFFFF; 
}
</style>
<path d="M8 16C9.10457 16 10 15.1046 10 14L6 14C6 15.1046 6.89543 16 8 16ZM8 1.918 7.203 2.079C5.3392 2.45875 4.0002 4.09791 4 6 4 6.628 3.866 8.197 3.541 9.742 3.381 10.509 3.165 11.308 2.878 12L13.122 12C12.835 11.308 12.62 10.51 12.459 9.742 12.134 8.197 12 6.628 12 6 11.9993 4.09828 10.6604 2.45968 8.797 2.08L8 1.917ZM14.22 12C14.443 12.447 14.701 12.801 15 13L1 13C1.299 12.801 1.557 12.447 1.78 12 2.68 10.2 3 6.88 3 6 3 3.58 4.72 1.56 7.005 1.099 6.94984 0.549477 7.3506 0.0592845 7.90013 0.00412506 8.44965-0.0510343 8.93984 0.349727 8.995 0.89925 9.00167 0.965667 9.00167 1.03258 8.995 1.099 11.3253 1.57298 12.9997 3.62202 13 6 13 6.88 13.32 10.2 14.22 12Z" class="MsftOfcThm_Text1_Fill_v2" fill="#FFFFFF"/></svg>