<svg viewBox="0 0 96 96" xmlns="http://www.w3.org/2000/svg" xmlns:xlink="http://www.w3.org/1999/xlink" id="Icons_LineUturn" overflow="hidden"><style>
.MsftOfcThm_Text1_Fill_v2 {
 fill:#FFFFFF; 
}
</style>
<path d="M69.1 36 18.3 36 27.2 27.1C28.3 25.9 28.3 24.1 27.1 22.9 26 21.8 24.1 21.7 22.9 22.8L8.8 37C8.5 37.3 8.3 37.6 8.1 38L8.1 38C8.1 38.1 8 38.2 8 38.3 8 38.4 8 38.4 7.9 38.5 7.9 38.6 7.9 38.7 7.9 38.8 8 39 8 39 8 39.1 8 39.2 8 39.2 8 39.3 8 40 8.4 40.7 8.9 41.2L23 55.4C24.2 56.5 26 56.5 27.2 55.3 28.3 54.2 28.4 52.3 27.3 51.1L18 42 69 42C76.2 42 82 47.8 82 55 82 62.2 76.2 68 69 68L11 68C9.3 68 8 69.3 8 71 8 72.7 9.3 74 11 74L69.1 74C79.6 74 88.1 65.5 88.1 55 88.1 44.5 79.6 36 69.1 36Z" class="MsftOfcThm_Text1_Fill_v2" fill="#FFFFFF"/></svg>