<svg viewBox="0 0 96 96" xmlns="http://www.w3.org/2000/svg" xmlns:xlink="http://www.w3.org/1999/xlink" id="Icons_RemoteLearningScience" overflow="hidden"><style>
.MsftOfcThm_Text1_lumMod_95_Fill_v2 {
 fill:#F2F2F2; 
}
</style>
<path d="M84.0058 13.9988 12.0058 13.9988C9.79931 14.0053 8.01223 15.7923 8.00576 17.9988L8.00576 65.9988C8.01221 68.2052 9.7993 69.9923 12.0058 69.9988L40.0058 69.9988 40.0058 75.9988 30.0058 75.9988 30.0058 81.9988 66.0058 81.9988 66.0058 75.9988 56.0058 75.9988 56.0058 69.9988 84.0058 69.9988C86.2122 69.9923 87.9993 68.2052 88.0058 65.9988L88.0058 17.9988C87.9993 15.7923 86.2122 14.0053 84.0058 13.9988ZM82.0058 63.9988 14.0058 63.9988 14.0058 19.9988 82.0058 19.9988Z" class="MsftOfcThm_Text1_lumMod_95_Fill_v2" fill="#F2F2F2"/><path d="M47.9218 45.0525C49.4384 45.0534 50.6685 43.8247 50.6694 42.3081 50.6703 40.7915 49.4416 39.5614 47.925 39.5605 46.4084 39.5596 45.1783 40.7883 45.1774 42.3049 45.1774 42.3055 45.1774 42.306 45.1774 42.3066 45.177 43.8227 46.4057 45.052 47.9218 45.0525Z" class="MsftOfcThm_Text1_lumMod_95_Fill_v2" fill="#F2F2F2"/><path d="M32.3242 51.4141C33.1018 52.7413 34.84 53.3821 37.2184 53.3821 38.8081 53.3477 40.3887 53.1327 41.9298 52.7413 43.2562 57.501 45.4518 60.6131 47.9218 60.6131 50.3917 60.6131 52.6332 57.501 53.9138 52.7413 55.5252 53.1827 57.1838 53.4285 58.8539 53.4735 61.2323 53.4735 62.9706 52.8328 63.7482 51.5056 64.983 49.3545 63.4279 45.9678 60.0431 42.4896 63.6566 38.874 65.3034 35.35 64.0226 33.1533 63.245 31.826 61.5069 31.1852 59.1283 31.1852 57.3796 31.2267 55.643 31.4881 53.9596 31.9633 52.6332 27.1579 50.4376 24 47.9218 24 45.4518 24 43.2106 27.1121 41.9298 31.8718 40.3185 31.4304 38.6599 31.1845 36.9898 31.1395 34.6112 31.1395 32.8732 31.7803 32.0955 33.1075 30.8148 35.3043 32.5072 38.8283 36.0292 42.3981 32.6444 45.8763 31.0893 49.263 32.3242 51.4141ZM62.193 50.5445C61.7813 51.231 60.5919 51.5971 58.8995 51.5971 57.3848 51.5675 55.8794 51.3523 54.417 50.9564 54.7108 49.5201 54.9245 48.0686 55.0574 46.6086 56.355 45.7142 57.5927 44.7358 58.7623 43.6795 61.6898 46.7001 62.8791 49.3545 62.193 50.5445ZM55.1946 40.5674C56.018 41.2081 56.7498 41.8031 57.4359 42.4439 56.7498 43.0388 56.0179 43.6795 55.1946 44.2745 55.2404 43.6337 55.2404 42.993 55.2404 42.3523 55.2404 41.7115 55.2404 41.1166 55.1946 40.5674ZM59.1283 33.016C60.8207 33.016 62.0558 33.4279 62.4216 34.0686 63.1078 35.2585 61.8727 38.0502 58.7623 41.1624 57.5937 40.0909 56.3561 39.0971 55.0574 38.1876 54.9287 36.6789 54.6995 35.1806 54.3712 33.7025 55.9219 33.2754 57.5201 33.0448 59.1283 33.016ZM42.7989 47.7528C43.302 48.0731 43.7594 48.3478 44.3083 48.668 44.8114 48.9427 45.3602 49.263 45.9092 49.5376 44.9944 49.9038 44.1254 50.2241 43.2562 50.4987 43.0734 49.6292 42.9361 48.7138 42.7989 47.7528ZM47.9218 58.7824C46.5496 58.7824 44.8114 56.4026 43.6679 52.2836 45.1629 51.8039 46.629 51.2385 48.059 50.5902 49.3973 51.2076 50.7721 51.7426 52.1757 52.1921 51.0321 56.4026 49.2941 58.7824 47.9218 58.7824ZM52.6332 50.4529C51.8556 50.1783 51.0321 49.9038 50.2089 49.5376 50.7577 49.263 51.3067 48.9427 51.8556 48.6223 52.2672 48.3934 52.6789 48.1646 53.0448 47.9358 52.9076 48.8054 52.7704 49.6749 52.6332 50.4529ZM53.0905 36.8604C52.5873 36.54 52.13 36.2654 51.5811 35.945 51.1237 35.7162 50.6663 35.4416 50.1631 35.167 50.9864 34.8009 51.8097 34.5263 52.6332 34.2517 52.8161 35.0754 52.9533 35.945 53.0905 36.8604ZM47.9218 25.8306C49.2941 25.8306 51.078 28.2563 52.2215 32.4668 50.8949 32.9244 49.477 33.4736 48.059 34.1144 46.6295 33.4518 45.1634 32.8712 43.6679 32.3752 44.8114 28.2105 46.5496 25.8306 47.9218 25.8306ZM43.2106 34.1602C44.0796 34.4347 44.9944 34.8008 45.9092 35.167 45.4518 35.3958 44.9486 35.6704 44.4914 35.945 43.9424 36.3111 43.3478 36.6772 42.7531 37.0434 42.8903 36.0366 43.0275 35.0754 43.2106 34.1602ZM42.5244 39.3775C43.4392 38.7368 44.3998 38.1418 45.4518 37.5469 46.321 37.0434 47.19 36.5857 48.059 36.1739 48.9281 36.5858 49.7972 37.0435 50.6663 37.5469 51.5811 38.096 52.496 38.6453 53.3193 39.1944 53.4108 40.2013 53.4108 41.2081 53.4108 42.3066 53.4108 43.4507 53.3651 44.5491 53.2736 45.6017 52.5417 46.1052 51.7641 46.5628 50.9407 47.0662 49.9802 47.6154 49.0196 48.1189 48.059 48.5765 47.0985 48.1188 46.138 47.6154 45.1774 47.0662 44.2626 46.517 43.3478 45.9678 42.5244 45.4186 42.433 44.4118 42.433 43.405 42.433 42.3066 42.433 41.2997 42.4787 40.3386 42.5244 39.3775ZM37.2184 51.5971C35.5261 51.5971 34.2911 51.1852 33.9252 50.5445 33.2391 49.3545 34.4284 46.7001 37.3556 43.6795 38.4078 44.5948 39.5513 45.5102 40.7863 46.4255 40.9118 47.9647 41.141 49.4937 41.4723 51.0021 40.0866 51.3864 38.6564 51.5864 37.2184 51.5971ZM40.6491 44.0457C39.9656 43.5307 39.3091 42.9808 38.6823 42.3981 39.2768 41.8489 39.9629 41.2997 40.6491 40.7505 40.6491 41.2539 40.6033 41.7573 40.6033 42.3066 40.6033 42.9015 40.6033 43.4965 40.6491 44.0457ZM33.6508 34.0686C34.0624 33.3821 35.2516 33.016 36.944 33.016 38.4586 33.0487 39.9636 33.2639 41.4267 33.6567 41.0956 35.2114 40.8664 36.7861 40.7405 38.3707 39.5325 39.2191 38.3862 40.152 37.31 41.1624 34.2453 38.0502 32.9645 35.2585 33.6508 34.0686Z" class="MsftOfcThm_Text1_lumMod_95_Fill_v2" fill="#F2F2F2"/></svg>