<svg width="16" height="16" viewBox="0 0 16 16" xmlns="http://www.w3.org/2000/svg" xmlns:xlink="http://www.w3.org/1999/xlink" fill="currentColor" overflow="hidden"><style>
.MsftOfcThm_Background1_lumMod_65_lumOff_35_Fill_v2 {
 fill:#595959; 
}
</style>
<path d="M12.5 0 5.914 0C5.51631 0.000350104 5.13503 0.158615 4.854 0.44L2.439 2.853C2.15774 3.13444 1.99982 3.51611 2 3.914L2 14.5C2 15.3284 2.67157 16 3.5 16L12.5 16C13.3284 16 14 15.3284 14 14.5L14 1.5C14 0.671573 13.3284 -4.44089e-16 12.5 -2.22045e-16ZM5.5 2.75C5.91421 2.75 6.25 3.08579 6.25 3.5L6.25 5.5C6.25 5.91421 5.91421 6.25 5.5 6.25 5.08579 6.25 4.75 5.91421 4.75 5.5L4.75 3.5C4.75 3.08579 5.08579 2.75 5.5 2.75ZM7.5 2.75C7.91421 2.75 8.25 3.08579 8.25 3.5L8.25 5.5C8.25 5.91421 7.91421 6.25 7.5 6.25 7.08579 6.25 6.75 5.91421 6.75 5.5L6.75 3.5C6.75 3.08579 7.08579 2.75 7.5 2.75ZM10.25 3.5 10.25 5.5C10.25 5.91421 9.91421 6.25 9.5 6.25 9.08579 6.25 8.75 5.91421 8.75 5.5L8.75 3.5C8.75 3.08579 9.08579 2.75 9.5 2.75 9.91421 2.75 10.25 3.08579 10.25 3.5ZM11.5 2.75C11.9142 2.75 12.25 3.08579 12.25 3.5L12.25 5.5C12.25 5.91421 11.9142 6.25 11.5 6.25 11.0858 6.25 10.75 5.91421 10.75 5.5L10.75 3.5C10.75 3.08579 11.0858 2.75 11.5 2.75Z" class="MsftOfcThm_Background1_lumMod_65_lumOff_35_Fill_v2" fill="#595959"/></svg>