<svg width="16" height="16" viewBox="0 0 16 16" xmlns="http://www.w3.org/2000/svg" xmlns:xlink="http://www.w3.org/1999/xlink" fill="currentColor" overflow="hidden"><style>
.MsftOfcThm_Background1_lumMod_75_lumOff_25_Fill_v2 {
 fill:#404040; 
}
</style>
<path d="M5.338 1.59C4.38559 1.85248 3.43965 2.1379 2.501 2.446 2.32613 2.50265 2.19883 2.65401 2.173 2.836 1.619 6.993 2.899 10.026 4.426 12.024 5.07252 12.8784 5.84341 13.6311 6.713 14.257 7.059 14.501 7.365 14.677 7.606 14.79 7.726 14.847 7.824 14.885 7.899 14.908 7.9318 14.9195 7.96562 14.9279 8 14.933 8.03397 14.9275 8.06742 14.9191 8.1 14.908 8.176 14.885 8.274 14.847 8.394 14.79 8.634 14.677 8.941 14.5 9.287 14.257 10.1566 13.6311 10.9275 12.8784 11.574 12.024 13.101 10.027 14.381 6.993 13.827 2.836 13.8014 2.6539 13.674 2.50244 13.499 2.446 12.848 2.233 11.749 1.886 10.662 1.591 9.552 1.29 8.531 1.067 8 1.067 7.47 1.067 6.448 1.29 5.338 1.591ZM5.072 0.56C6.157 0.265 7.31 0 8 0 8.69 0 9.843 0.265 10.928 0.56 12.038 0.86 13.157 1.215 13.815 1.43 14.3764 1.61539 14.7821 2.10581 14.859 2.692 15.455 7.169 14.072 10.487 12.394 12.682 11.6824 13.621 10.834 14.4479 9.877 15.135 9.54609 15.3728 9.19548 15.5819 8.829 15.76 8.549 15.892 8.248 16 8 16 7.752 16 7.452 15.892 7.171 15.76 6.80451 15.5819 6.45391 15.3728 6.123 15.135 5.16603 14.4478 4.31758 13.621 3.606 12.682 1.928 10.487 0.545 7.169 1.141 2.692 1.21791 2.10581 1.62361 1.61539 2.185 1.43 3.14019 1.11681 4.10281 0.826725 5.072 0.56Z" class="MsftOfcThm_Background1_lumMod_75_lumOff_25_Fill_v2" fill="#404040"/><path d="M9.5 6.5C9.50033 7.13596 9.09959 7.70301 8.5 7.915L8.885 9.905C8.93747 10.1761 8.76022 10.4384 8.48911 10.4909 8.45777 10.497 8.42592 10.5 8.394 10.5L7.606 10.5C7.32986 10.4995 7.1064 10.2753 7.10689 9.99911 7.10695 9.96752 7.11 9.93601 7.116 9.905L7.5 7.915C6.71895 7.63886 6.30964 6.78183 6.58579 6.00079 6.86193 5.21974 7.71895 4.81043 8.5 5.08657 9.09905 5.29837 9.49967 5.86461 9.5 6.5Z" class="MsftOfcThm_Background1_lumMod_75_lumOff_25_Fill_v2" fill="#404040"/></svg>